:FULLY-SPECIFIED
:FORCE-ALL-JOINTS-BE-3DOF
:DEGREES
2752
root -5.559 13.9753 -28.4071 1242 -65.4881 -161.137
lfemur -59.6016 43.0125 -6.57977
ltibia 68.0909 0 0
lfoot -2.55322 -0.975553 0
ltoes -31.5058 0 0
rfemur -30.8842 -18.4413 21.6406
rtibia 81.92 0 0
rfoot -35.2584 -24.75 0
rtoes -14.4185 0 0
lowerback 15.6667 5.79914 0.491115
upperback -4.01752 8.07856 1.4492
thorax -13.4247 3.78607 -0.844322
lowerneck -2.49027 9.60068 2.10698
upperneck 7.69873 12.5515 1.93281
head 2.89222 6.33604 0.677191
lclavicle 7.70017e-15 -1.6189e-14 0
lhumerus 3.53433 10.39 84.104
lradius 95.1549 0 0
lwrist -18.6888 0 0
lhand -39.8065 387.953 0
lfingers 7.12502 0 0
lthumb -12.7762 -663.044 0
rclavicle -4.11178e-14 2.19349e-15 0
rhumerus -57.8199 50.9604 -110.154
rradius 114.098 0 0
rwrist -84.6464 0 0
rhand 4.51437 -386.8 0
rfingers 7.12502 0 0
rthumb 30.1735 305.622 0
2753
root -5.56922 13.9653 -28.4141 1242.02 -65.5483 -161.149
lfemur -59.6754 43.0712 -6.58052
ltibia 68.2269 0 0
lfoot -2.61518 -1.03895 0
ltoes -31.4712 0 0
rfemur -30.8775 -18.4812 21.6002
rtibia 82.0116 0 0
rfoot -35.3675 -24.7836 0
rtoes -14.3989 0 0
lowerback 15.6476 5.8154 0.518626
upperback -4.04713 8.10436 1.42758
thorax -13.4402 3.79446 -0.889647
lowerneck -2.49877 9.58422 2.14014
upperneck 7.73747 12.5273 1.92461
head 2.90994 6.32468 0.670926
lclavicle 2.58966e-15 -1.53303e-14 0
lhumerus 3.55108 10.4058 84.1334
lradius 95.1196 0 0
lwrist -18.7348 0 0
lhand -39.793 387.943 0
lfingers 7.12502 0 0
lthumb -12.7711 -663.017 0
rclavicle -4.1803e-14 1.72737e-15 0
rhumerus -57.8412 50.9489 -110.174
rradius 114.096 0 0
rwrist -84.6354 0 0
rhand 4.55935 -386.788 0
rfingers 7.12502 0 0
rthumb 30.2081 305.637 0
2754
root -5.57894 13.9571 -28.4224 1241.95 -65.592 -161.081
lfemur -59.7492 43.1299 -6.58126
ltibia 68.3629 0 0
lfoot -2.67715 -1.10234 0
ltoes -31.4367 0 0
rfemur -30.8708 -18.521 21.5598
rtibia 82.1032 0 0
rfoot -35.4766 -24.8172 0
rtoes -14.3793 0 0
lowerback 15.6284 5.81379 0.527852
upperback -4.06573 8.10608 1.4406
thorax -13.4512 3.79499 -0.879979
lowerneck -2.49923 9.58805 2.13763
upperneck 7.77546 12.5307 1.93944
head 2.92176 6.32675 0.677531
lclavicle -2.52084e-15 -1.44715e-14 0
lhumerus 3.56783 10.4216 84.1627
lradius 95.0842 0 0
lwrist -18.7808 0 0
lhand -39.7795 387.933 0
lfingers 7.12502 0 0
lthumb -12.766 -662.99 0
rclavicle -4.24883e-14 1.26125e-15 0
rhumerus -57.8626 50.9373 -110.193
rradius 114.094 0 0
rwrist -84.6243 0 0
rhand 4.60433 -386.776 0
rfingers 7.12502 0 0
rthumb 30.2428 305.652 0
2755
root -5.58663 13.9494 -28.4325 1241.89 -65.6676 -160.998
lfemur -59.823 43.1887 -6.58201
ltibia 68.4989 0 0
lfoot -2.73912 -1.16573 0
ltoes -31.515 0 0
rfemur -30.8641 -18.5609 21.5194
rtibia 82.1947 0 0
rfoot -35.5858 -24.8508 0
rtoes -14.3598 0 0
lowerback 15.597 5.79832 0.516889
upperback -4.07654 8.0867 1.47202
thorax -13.4517 3.78869 -0.831747
lowerneck -2.53522 9.60926 2.05311
upperneck 7.81642 12.5581 1.99674
head 2.93229 6.34013 0.712642
lclavicle -7.63134e-15 -1.36128e-14 0
lhumerus 3.58458 10.4374 84.1921
lradius 95.0488 0 0
lwrist -18.8269 0 0
lhand -39.766 387.924 0
lfingers 7.12502 0 0
lthumb -12.761 -662.963 0
rclavicle -4.31735e-14 7.95139e-16 0
rhumerus -57.884 50.9258 -110.212
rradius 114.092 0 0
rwrist -84.6133 0 0
rhand 4.6493 -386.764 0
rfingers 7.12502 0 0
rthumb 30.2775 305.667 0
2756
root -5.59802 13.9368 -28.4377 1241.85 -65.6691 -160.959
lfemur -59.8968 43.2474 -6.58276
ltibia 68.6349 0 0
lfoot -2.80108 -1.22912 0
ltoes -31.5933 0 0
rfemur -30.8574 -18.6007 21.479
rtibia 82.2863 0 0
rfoot -35.6949 -24.8844 0
rtoes -14.3402 0 0
lowerback 15.5762 5.80202 0.55795
upperback -4.09551 8.10041 1.4718
thorax -13.4552 3.7917 -0.856878
lowerneck -2.50017 9.59224 2.10375
upperneck 7.7684 12.538 1.94791
head 2.9165 6.32991 0.685279
lclavicle -1.27418e-14 -1.2754e-14 0
lhumerus 3.60133 10.4532 84.2214
lradius 95.0135 0 0
lwrist -18.8729 0 0
lhand -39.7525 387.914 0
lfingers 7.12502 0 0
lthumb -12.7559 -662.936 0
rclavicle -4.15899e-14 3.12377e-16 0
rhumerus -57.9053 50.9142 -110.232
rradius 114.09 0 0
rwrist -84.6022 0 0
rhand 4.69428 -386.752 0
rfingers 7.12502 0 0
rthumb 30.3122 305.682 0
2757
root -5.60693 13.9252 -28.4443 1241.9 -65.7222 -161.03
lfemur -59.9706 43.3061 -6.58351
ltibia 68.7709 0 0
lfoot -2.86305 -1.29251 0
ltoes -31.6717 0 0
rfemur -30.8506 -18.6405 21.4386
rtibia 82.3779 0 0
rfoot -35.804 -24.918 0
rtoes -14.3207 0 0
lowerback 15.5737 5.7869 0.515582
upperback -4.10885 8.07194 1.47169
thorax -13.4754 3.78146 -0.826939
lowerneck -2.50216 9.60982 2.07436
upperneck 7.75753 12.5594 2.00235
head 2.90717 6.34156 0.706783
lclavicle -1.78524e-14 -1.18953e-14 0
lhumerus 3.58705 10.4999 84.2066
lradius 94.9781 0 0
lwrist -18.9189 0 0
lhand -39.739 387.905 0
lfingers 7.12502 0 0
lthumb -12.7508 -662.909 0
rclavicle -4.00063e-14 -1.70385e-16 0
rhumerus -57.9267 50.9027 -110.251
rradius 114.082 0 0
rwrist -84.5912 0 0
rhand 4.73926 -386.74 0
rfingers 7.12502 0 0
rthumb 30.3468 305.697 0
2758
root -5.61596 13.9148 -28.4525 1241.83 -65.724 -160.962
lfemur -60.0444 43.3648 -6.58426
ltibia 68.9069 0 0
lfoot -2.92502 -1.35591 0
ltoes -31.75 0 0
rfemur -30.8439 -18.6804 21.3982
rtibia 82.4904 0 0
rfoot -35.9131 -24.9516 0
rtoes -14.3011 0 0
lowerback 15.5596 5.79092 0.528375
upperback -4.12746 8.08127 1.47833
thorax -13.4879 3.78483 -0.828776
lowerneck -2.48614 9.60261 2.1363
upperneck 7.74773 12.5489 1.97571
head 2.90719 6.33711 0.687546
lclavicle -2.29629e-14 -1.10365e-14 0
lhumerus 3.57276 10.5465 84.1917
lradius 94.9428 0 0
lwrist -18.9649 0 0
lhand -39.7255 387.895 0
lfingers 7.12502 0 0
lthumb -12.7458 -662.882 0
rclavicle -3.84226e-14 -6.53147e-16 0
rhumerus -57.9481 50.8911 -110.271
rradius 114.074 0 0
rwrist -84.5802 0 0
rhand 4.78424 -386.727 0
rfingers 7.12502 0 0
rthumb 30.3815 305.712 0
2759
root -5.62471 13.9042 -28.4589 1241.98 -65.7491 -161.132
lfemur -60.1182 43.4235 -6.585
ltibia 69.0429 0 0
lfoot -2.98698 -1.4193 0
ltoes -31.8283 0 0
rfemur -30.8372 -18.7202 21.3578
rtibia 82.6029 0 0
rfoot -36.0222 -24.9852 0
rtoes -14.2815 0 0
lowerback 15.5549 5.81651 0.482533
upperback -4.14211 8.10385 1.45279
thorax -13.5048 3.79747 -0.838371
lowerneck -2.49243 9.5854 2.15556
upperneck 7.74069 12.527 1.94952
head 2.90917 6.32599 0.675966
lclavicle -2.80734e-14 -1.01778e-14 0
lhumerus 3.55848 10.5932 84.1769
lradius 94.9074 0 0
lwrist -19.0109 0 0
lhand -39.712 387.885 0
lfingers 7.12502 0 0
lthumb -12.7407 -662.855 0
rclavicle -3.6839e-14 -1.13591e-15 0
rhumerus -57.9694 50.8796 -110.29
rradius 114.066 0 0
rwrist -84.5691 0 0
rhand 4.82922 -386.715 0
rfingers 7.12502 0 0
rthumb 30.4162 305.727 0
2760
root -5.63358 13.8944 -28.467 1242.09 -65.7492 -161.239
lfemur -60.192 43.4822 -6.58575
ltibia 69.1789 0 0
lfoot -3.04895 -1.48269 0
ltoes -31.9066 0 0
rfemur -30.8305 -18.76 21.3174
rtibia 82.7153 0 0
rfoot -36.1314 -25.0188 0
rtoes -14.262 0 0
lowerback 15.5173 5.82817 0.417453
upperback -4.1509 8.10888 1.47607
thorax -13.506 3.80667 -0.775469
lowerneck -2.48966 9.58653 2.05974
upperneck 7.72978 12.5333 1.96381
head 2.8971 6.32711 0.694436
lclavicle -3.31839e-14 -9.31902e-15 0
lhumerus 3.5442 10.6398 84.162
lradius 94.8721 0 0
lwrist -19.057 0 0
lhand -39.6985 387.876 0
lfingers 7.12502 0 0
lthumb -12.7356 -662.828 0
rclavicle -3.52554e-14 -1.61867e-15 0
rhumerus -57.9908 50.868 -110.31
rradius 114.058 0 0
rwrist -84.5581 0 0
rhand 4.8742 -386.703 0
rfingers 7.12502 0 0
rthumb 30.4508 305.742 0
2761
root -5.64397 13.8798 -28.474 1242.22 -65.7178 -161.377
lfemur -60.2659 43.541 -6.5865
ltibia 69.3149 0 0
lfoot -3.11092 -1.54608 0
ltoes -31.985 0 0
rfemur -30.8238 -18.7999 21.277
rtibia 82.8278 0 0
rfoot -36.2405 -25.0524 0
rtoes -14.2424 0 0
lowerback 15.4689 5.83742 0.355312
upperback -4.15577 8.10918 1.4845
thorax -13.4931 3.81318 -0.727714
lowerneck -2.52145 9.59991 2.05416
upperneck 7.77646 12.5514 1.94706
head 2.91972 6.33554 0.694602
lclavicle -3.82944e-14 -8.46027e-15 0
lhumerus 3.52992 10.6865 84.1472
lradius 94.8367 0 0
lwrist -19.103 0 0
lhand -39.685 387.866 0
lfingers 7.12502 0 0
lthumb -12.7306 -662.801 0
rclavicle -3.36718e-14 -2.10143e-15 0
rhumerus -58.0121 50.8565 -110.329
rradius 114.049 0 0
rwrist -84.5471 0 0
rhand 4.91917 -386.691 0
rfingers 7.12502 0 0
rthumb 30.4855 305.757 0
2762
root -5.65278 13.871 -28.483 1242.4 -65.6866 -161.571
lfemur -60.3397 43.5997 -6.58725
ltibia 69.4509 0 0
lfoot -3.17288 -1.60948 0
ltoes -32.0633 0 0
rfemur -30.817 -18.8397 21.2366
rtibia 82.9403 0 0
rfoot -36.3496 -25.086 0
rtoes -14.2228 0 0
lowerback 15.4328 5.87196 0.267487
upperback -4.16304 8.13682 1.47718
thorax -13.4918 3.83334 -0.692101
lowerneck -2.52952 9.57961 2.09701
upperneck 7.79075 12.5265 1.88209
head 2.9338 6.32226 0.668448
lclavicle -4.34049e-14 -7.60152e-15 0
lhumerus 3.51563 10.7331 84.1323
lradius 94.8014 0 0
lwrist -19.149 0 0
lhand -39.6715 387.857 0
lfingers 7.12502 0 0
lthumb -12.7255 -662.774 0
rclavicle -3.20882e-14 -2.5842e-15 0
rhumerus -58.0335 50.8449 -110.349
rradius 114.041 0 0
rwrist -84.536 0 0
rhand 4.96415 -386.679 0
rfingers 7.12502 0 0
rthumb 30.5202 305.771 0
2763
root -5.66025 13.86 -28.4912 1242.6 -65.7252 -161.778
lfemur -60.4135 43.6584 -6.588
ltibia 69.5869 0 0
lfoot -3.23485 -1.67287 0
ltoes -32.1416 0 0
rfemur -30.8103 -18.8796 21.1962
rtibia 83.0528 0 0
rfoot -36.4587 -25.1196 0
rtoes -14.2033 0 0
lowerback 15.4036 5.85855 0.168481
upperback -4.17709 8.0977 1.46731
thorax -13.5033 3.82291 -0.636429
lowerneck -2.53778 9.6225 1.95642
upperneck 7.8106 12.5777 2.05894
head 2.91941 6.34968 0.746893
lclavicle -4.85154e-14 -6.74277e-15 0
lhumerus 3.50135 10.7798 84.1175
lradius 94.766 0 0
lwrist -19.1487 0 0
lhand -39.658 387.847 0
lfingers 7.12502 0 0
lthumb -12.7205 -662.747 0
rclavicle -3.05045e-14 -3.06696e-15 0
rhumerus -58.0549 50.8334 -110.368
rradius 114.033 0 0
rwrist -84.525 0 0
rhand 5.00913 -386.667 0
rfingers 7.12502 0 0
rthumb 30.5548 305.786 0
2764
root -5.67182 13.8481 -28.4977 1242.78 -65.6364 -161.956
lfemur -60.4873 43.7171 -6.58874
ltibia 69.7229 0 0
lfoot -3.29682 -1.73626 0
ltoes -32.2199 0 0
rfemur -30.8036 -18.9194 21.1558
rtibia 83.1652 0 0
rfoot -36.5678 -25.1532 0
rtoes -14.1837 0 0
lowerback 15.3466 5.90319 0.123785
upperback -4.21204 8.14478 1.42927
thorax -13.5106 3.84694 -0.662541
lowerneck -2.47598 9.58152 2.11446
upperneck 7.81213 12.5232 1.95045
head 2.92753 6.32304 0.684263
lclavicle -5.36259e-14 -5.88402e-15 0
lhumerus 3.48707 10.8265 84.1026
lradius 94.7534 0 0
lwrist -19.1484 0 0
lhand -39.6445 387.838 0
lfingers 7.12502 0 0
lthumb -12.7154 -662.72 0
rclavicle -2.89209e-14 -3.54972e-15 0
rhumerus -58.0762 50.8218 -110.388
rradius 114.025 0 0
rwrist -84.514 0 0
rhand 5.05411 -386.655 0
rfingers 7.12502 0 0
rthumb 30.5895 305.801 0
